<?xml version="1.0" encoding="utf-8"?>
<!-- Generator: Adobe Illustrator 22.1.0, SVG Export Plug-In . SVG Version: 6.00 Build 0)  -->
<svg version="1.1" id="Layer_1" xmlns="http://www.w3.org/2000/svg" xmlns:xlink="http://www.w3.org/1999/xlink" x="0px" y="0px"
	 viewBox="0 0 2000 1000" style="enable-background:new 0 0 2000 1000;" xml:space="preserve">
<style type="text/css">
	.st0{clip-path:url(#SVGID_2_);}
	.st1{clip-path:url(#SVGID_4_);fill:#49B9E7;}
	.st2{clip-path:url(#SVGID_4_);fill:#FFF229;}
	.st3{clip-path:url(#SVGID_6_);fill:#F16622;}
	.st4{clip-path:url(#SVGID_6_);fill:#75CDDE;}
	.st5{clip-path:url(#SVGID_6_);fill:#D24899;}
	.st6{clip-path:url(#SVGID_6_);fill:#FFCC05;}
	.st7{clip-path:url(#SVGID_6_);fill:#CBDB29;}
	.st8{clip-path:url(#SVGID_6_);fill:#0098CC;}
</style>
<g id="Haptik_Logo_White_Text_3_">
	<g>
		<defs>
			<rect id="SVGID_1_" x="123.7" y="82.7" width="1755.5" height="829.9"/>
		</defs>
		<clipPath id="SVGID_2_">
			<use xlink:href="#SVGID_1_"  style="overflow:visible;"/>
		</clipPath>
		<g class="st0">
			<defs>
				<rect id="SVGID_3_" x="123.7" y="82.7" width="1755.5" height="829.9"/>
			</defs>
			<clipPath id="SVGID_4_">
				<use xlink:href="#SVGID_3_"  style="overflow:visible;"/>
			</clipPath>
			<path class="st1" d="M880.1,473.6V349.6c0-44.9-15-67.4-45-67.4c-15.1,0-27.8,6.5-38.1,19.5c-10.3,13-15.5,29.6-15.5,49.9v122.1
				h-51.6V137.7h51.6v146.7h0.9c17.1-28.7,41.7-43,73.6-43c50.4,0,75.6,30.8,75.6,92.4v139.8H880.1z M1095.6,473.6v-35.5h-0.9
				c-15.7,27.2-38.6,40.8-68.9,40.8c-22.3,0-39.8-6.1-52.4-18.2c-12.6-12.1-18.9-28.1-18.9-48.1c0-42.8,24.7-67.8,74-74.9l67.4-9.5
				c0-32.4-15.4-48.5-46.1-48.5c-27,0-51.4,9.3-73.1,27.9v-45c23.9-14.2,51.6-21.3,82.9-21.3c57.3,0,86,28.2,86,84.6v147.6H1095.6z
				 M1095.8,362.2l-47.6,6.6c-14.8,1.9-25.9,5.5-33.4,10.7c-7.5,5.2-11.2,14.4-11.2,27.6c0,9.6,3.4,17.5,10.3,23.6
				c6.9,6.1,16.1,9.2,27.6,9.2c15.7,0,28.6-5.5,38.9-16.5c10.3-11,15.4-24.9,15.4-41.5V362.2z M1379.2,444.2
				c-18.2,22.8-43,34.1-74.5,34.1c-29,0-51.3-12.7-66.9-38.1h-0.9V578h-51.4V246.7h51.4v39.9h0.9c17.6-30.1,43.3-45.2,77.1-45.2
				c28.8,0,51.3,10.1,67.4,30.4c16.1,20.2,24.2,47.4,24.2,81.5C1406.4,391.1,1397.3,421.4,1379.2,444.2 M1338.5,301.4
				c-10.1-12.6-23.8-18.9-41.1-18.9c-18.3,0-33.1,6.5-44.2,19.5c-11.2,13-16.7,29.3-16.7,48.8v28.1c0,16.5,5.3,30.6,15.8,42.1
				c10.6,11.5,24,17.3,40.2,17.3c19.1,0,34-7.4,44.9-22.3c10.9-14.8,16.3-35.6,16.3-62.2C1353.7,331.5,1348.6,314,1338.5,301.4
				 M1508.9,429.3c4.9,5.8,13,8.6,24.4,8.6c8.7,0,16.3-2.5,22.6-7.5v40.8c-10,5-23.3,7.5-39.7,7.5c-44,0-66-21.1-66-63.4V287.1
				h-37.9v-40.3h37.9v-52.5l51.4-14.6v67.1h54.3v40.3h-54.3v113.5C1501.6,414,1504.1,423.6,1508.9,429.3 M1625.6,190.6
				c-6.1,5.7-13.4,8.5-22.2,8.5c-8.4,0-15.6-2.7-21.6-8.2c-6-5.5-9-12.4-9-20.8c0-8.4,3-15.4,9-21.1c6-5.6,13.2-8.4,21.6-8.4
				c8.7,0,16.1,2.8,22.2,8.4c6.1,5.6,9.1,12.6,9.1,21.1C1634.7,178,1631.7,184.9,1625.6,190.6 M1629,473.6h-51.4V246.7h51.4V473.6z
				 M1879.3,473.6h-65.1l-88.2-109h-0.9v109h-51.6V137.7h51.6v213h0.9l83.3-103.9h61.8l-93.7,109.5L1879.3,473.6z"/>
			<path class="st1" d="M1757.2,139.7v35.4h-6.8v-35.4h-11.8v-5.8h30.5v5.8H1757.2z M1809.7,175.2v-26.7c0-2.2,0.1-4.9,0.4-8h-0.1
				c-0.4,1.8-0.8,3.1-1.1,3.9l-12.3,30.8h-4.7l-12.3-30.6c-0.3-0.9-0.7-2.3-1.1-4.1h-0.1c0.2,1.6,0.2,4.3,0.2,8.1v26.6h-6.3v-41.3
				h9.6l10.8,27.5c0.8,2.1,1.4,3.7,1.6,4.7h0.1c0.7-2.2,1.3-3.8,1.7-4.8l11-27.4h9.3v41.3H1809.7z"/>
			<path class="st2" d="M600.2,479.8c-2.5,8.2-3.9,17-3.4,27.6c1.3,26,10.1,57.1,23,79.8c36.6,64.6,110.1,10.5,149.3-23.6
				c37.4-32.6,107.2-58.6,140.2-40.6c33,18.1,14.5,46.8-25.5,70.1c-41.6,24.3-81.6,52.3-119.7,81.7c-44.3,34.1-73.1,78.8-111,119
				c-27.9,29.6-59.2,57.5-95,77.3c-49.8,27.6-108,56.7-165.1,32.6c-41.3-17.5-71.4-60.4-86.3-101.3
				c-21.7-59.8-54.5-175.4-70.3-221.6c-15.8-46.2-42.6-124.5-92.8-195.5c-50.2-71,5.3-113,46.5-55.7c16,22.2,28.3,45.2,41.8,68.4
				c13.1,22.5,24.1,46.3,38.7,67.7c12,17.5,18.2,42.2,42.6,34.3c12.9-4.1,14.7-47.8,9.5-66.1c-24.6-86.7-48.6-229.6-47.9-255
				c0.7-25.4,31.5-69.8,62.9-21.6c31.4,48.2,28.5,115.9,42.4,174.8c5,21.1,11.7,41.1,15.5,62.3c1.8,10.3,3.7,34,16.2,37.6
				c19.3,5.5,13.8-27.9,13.4-37.8c-1.2-27,1.3-53.4,1.4-80.5c0.1-48.9,0.7-97.8,1.5-146.7c0-0.6,0.1-1.3,0-1.9
				c0,0-7.2-70.6,30.8-81.4c38.1-10.7,40.7,79.6,38.1,117.6c-2.6,38,3.2,135.8,0,175.6c-3.3,39.8,11.4,59.9,24.7,60
				c24.4,0.2,32-33.4,36.7-51.9c17-66.3,16.6-137.2,38.2-202.2c11.5-34.5,28.5-59.7,53.4-49.9c24.9,9.7,29.6,37.3,12.2,126
				c-11.7,60.2-23.9,121.2-45,178.9C611.7,453.6,604.4,465.8,600.2,479.8"/>
		</g>
		<g class="st0">
			<defs>
				<path id="SVGID_5_" d="M459.1,83.6c-38.1,10.7-30.8,81.4-30.8,81.4c0.1,0.6,0,1.3,0,1.9c-0.8,48.9-1.4,97.8-1.5,146.7
					c-0.1,27.1-2.6,53.5-1.4,80.5c0.4,9.9,5.9,43.3-13.4,37.8c-12.5-3.6-14.4-27.3-16.2-37.6c-3.8-21.2-10.5-41.2-15.5-62.3
					c-13.9-58.9-11-126.5-42.4-174.8c-31.4-48.3-62.2-3.8-62.9,21.6c-0.7,25.4,23.3,168.3,47.9,255c5.2,18.2,3.4,61.9-9.5,66.1
					c-24.4,7.9-30.7-16.8-42.6-34.3c-14.6-21.4-25.6-45.2-38.7-67.7c-13.5-23.3-25.9-46.3-41.8-68.4c-41.2-57.2-96.7-15.3-46.5,55.7
					c50.2,71,77,149.3,92.8,195.5c15.8,46.2,48.5,161.8,70.3,221.6c14.9,41,45,83.8,86.3,101.3c14.9,6.3,29.9,9,44.9,9h0.1
					c42.1,0,83.4-21.2,120.1-41.6c35.8-19.8,67-47.7,95-77.3c37.9-40.2,66.6-84.9,111-119c38.2-29.3,78.2-57.4,119.7-81.7
					c40-23.4,58.4-52.1,25.5-70.1c-33-18.1-102.7,8-140.2,40.6c-39.1,34.1-112.7,88.2-149.3,23.6c-12.9-22.7-21.7-53.8-23-79.8
					c-0.5-10.5,0.9-19.3,3.4-27.6c4.2-14,11.5-26.2,17.3-42.1c21.1-57.7,33.3-118.7,45-178.9c17.3-88.7,12.7-116.2-12.2-126
					c-24.9-9.8-42,15.4-53.4,49.9c-21.6,65-21.3,135.8-38.2,202.2c-4.7,18.5-12.4,52.1-36.7,51.9c-13.3-0.1-28-20.2-24.7-60
					c3.3-39.8-2.5-137.6,0-175.6c2.4-35.9,0.3-118.5-32.1-118.5C463.2,82.7,461.2,83,459.1,83.6"/>
			</defs>
			<clipPath id="SVGID_6_">
				<use xlink:href="#SVGID_5_"  style="overflow:visible;"/>
			</clipPath>
			<path class="st3" d="M490,11.3c0,0-52.6,505.2-369.4,751L68.1,514.8C68.1,514.8,306.7,455.9,490,11.3"/>
			<path class="st4" d="M627.1,119.5c0,0,24.9,450-333.6,689.5l-99.4-240.3C194.1,568.7,491.3,473.8,627.1,119.5"/>
			<path class="st5" d="M263.6,927.7c0,0,488.6-25.3,587.6-498.3l-167-124.7C684.2,304.7,732.1,780.1,263.6,927.7"/>
			<path class="st6" d="M152.3,612.6c0,0,410.5-172.3,347-544.7C499.3,67.9,454.5,427.1,152.3,612.6"/>
			<path class="st6" d="M444.6,900.4c0,0,512.5-51.8,436.4-460.8C881,439.6,808.1,749.9,444.6,900.4"/>
			<path class="st5" d="M476.2,506.4c0,0-137.5,309-377,177.6C99.2,684,307.7,702.2,476.2,506.4"/>
			<path class="st3" d="M539.9,313.2c0,0,32.7,154-93.5,170C446.4,483.2,530,433.1,539.9,313.2"/>
			<path class="st4" d="M91.6,468.3c0,0,373.2-126,282.1-382.1C373.6,86.2,310.6,333.8,91.6,468.3"/>
			<path class="st7" d="M312.7,865.4c0,0,471.8-173.4,464.1-629.1L654.4,101c0,0-15.4,588-417.1,705.6L312.7,865.4z"/>
			<path class="st8" d="M177.5,662.4c0,0,171.5,153.6,447.4-99.7C624.9,562.7,365.1,996.2,177.5,662.4"/>
			<path class="st8" d="M29.6,325.7c0,0,224.2,52.3,344.5-302.3C374.1,23.4,354.5,528.4,29.6,325.7"/>
		</g>
	</g>
</g>
</svg>
