<?xml version="1.0" encoding="UTF-8"?>
<!DOCTYPE svg PUBLIC "-//W3C//DTD SVG 1.1//EN" "http://www.w3.org/Graphics/SVG/1.1/DTD/svg11.dtd">
<!-- Creator: CorelDRAW X7 -->
<svg xmlns="http://www.w3.org/2000/svg" xml:space="preserve" width="55.6959mm" height="12.807mm" version="1.1" style="shape-rendering:geometricPrecision; text-rendering:geometricPrecision; image-rendering:optimizeQuality; fill-rule:evenodd; clip-rule:evenodd"
viewBox="0 0 15335 3526"
 xmlns:xlink="http://www.w3.org/1999/xlink">
 <defs>
  <style type="text/css">
   <![CDATA[
    .fil3 {fill:#006EA5}
    .fil0 {fill:#26A134}
    .fil2 {fill:#004687;fill-rule:nonzero}
    .fil1 {fill:#006EA5;fill-rule:nonzero}
    .fil5 {fill:#02730F;fill-rule:nonzero}
    .fil4 {fill:#26A134;fill-rule:nonzero}
    .fil6 {fill:#26A134;fill-rule:nonzero}
   ]]>
  </style>
 </defs>
 <g id="Layer_x0020_1">
  <metadata id="CorelCorpID_0Corel-Layer"/>
  <g id="_742009728">
   <path class="fil0" d="M3279 247c181,-261 539,-325 800,-144 260,181 325,539 144,800 -181,260 -540,325 -800,144 -261,-181 -325,-539 -144,-800z"/>
   <path class="fil1" d="M1 2437l7 120c8,-82 47,-163 111,-208 112,-78 237,-87 431,29 542,332 1084,663 1626,995 689,493 1023,-342 619,-566l-1583 -966c-288,-176 -599,-263 -909,-48 -241,167 -315,386 -302,644z"/>
   <path class="fil2" d="M8 2557c8,-83 47,-163 111,-208 112,-78 237,-87 431,29 542,332 1084,663 1626,995 353,253 613,156 728,-27 -28,-64 -76,-120 -144,-158l-1582 -966c-288,-175 -633,-286 -942,-71 -118,82 -236,249 -228,406z"/>
   <path class="fil3" d="M1479 542c-181,-261 -539,-326 -800,-145 -261,182 -325,540 -144,800 181,261 539,326 800,145 261,-182 325,-540 144,-800z"/>
   <path class="fil4" d="M4756 2142l-6 120c-8,-82 -47,-163 -111,-207 -112,-78 -237,-88 -431,28l-967 592 -762 -478 1067 -651c287,-175 599,-263 908,-48 242,168 315,386 302,644z"/>
   <path class="fil5" d="M4750 2262c-8,-83 -47,-163 -111,-208 -112,-78 -238,-87 -431,29l-968 592 -436 -274 776 -474c288,-175 632,-286 941,-71 119,82 237,249 229,406z"/>
  </g>
  <path class="fil1" d="M5619 2500c0,71 44,127 144,127 100,0 149,-54 149,-124 0,-46 -14,-76 -33,-95 0,-305 0,-619 -8,-920l8 0c181,333 441,780 441,980 0,84 38,146 154,146 79,0 133,-27 136,-95 8,-195 362,-741 524,-1020l6 0c-8,314 -8,631 -8,936 -19,19 -30,49 -30,84 0,68 41,108 143,108 82,0 160,-43 160,-127 0,-27 -5,-57 -24,-75l0 -1348c8,-19 19,-51 19,-81 0,-81 -60,-132 -182,-132 -81,0 -135,35 -135,89 0,32 8,84 8,116 -24,260 -489,714 -603,1112l-8 0c-95,-403 -555,-958 -566,-1201 0,-62 -43,-103 -127,-106 -92,3 -149,38 -146,136l0 1406c-16,17 -22,55 -22,84z"/>
  <path id="1" class="fil1" d="M8385 1413c-355,0 -709,362 -709,865 0,279 176,379 406,379 444,0 679,-316 679,-392 0,-54 -22,-119 -122,-119 -89,0 -143,57 -135,119 -49,73 -206,181 -392,181 -117,0 -187,-54 -187,-189 0,-54 5,-103 19,-146l124 -22c628,-111 712,-222 712,-344 0,-105 -89,-332 -395,-332zm-11 205c119,0 165,73 165,138 0,38 -68,79 -546,163 81,-174 227,-301 381,-301z"/>
  <path id="2" class="fil1" d="M9040 2454c-19,14 -35,41 -35,68 0,70 40,105 127,105 146,0 192,-40 192,-121 0,-27 -16,-60 -32,-76l0 -495c138,-162 281,-254 324,-254 22,0 33,27 33,59 -8,22 -14,46 -14,70 0,46 46,73 125,73 92,0 135,-48 135,-124 0,-249 -84,-330 -168,-330 -130,0 -284,105 -433,241l-2 0 0 -95c19,-22 16,-43 16,-62 0,-54 -52,-89 -133,-89 -86,0 -157,46 -157,97l22 70 0 863z"/>
  <path id="3" class="fil1" d="M10761 1835c-568,65 -863,373 -863,611 0,138 111,217 249,217 225,0 411,-95 603,-306l6 0 0 122c-11,21 -22,40 -22,65 0,48 24,86 114,86 84,0 178,-16 178,-97 0,-27 -8,-54 -21,-65l0 -828c0,-154 -109,-244 -247,-244 -243,0 -432,60 -573,149 -57,-11 -122,60 -122,111 0,54 49,127 114,127 78,0 119,-54 113,-75 101,-65 225,-117 374,-117 70,0 97,35 97,106l0 138zm-5 251c0,125 -319,360 -520,360 -51,0 -89,-16 -89,-62 0,-122 249,-338 609,-381l0 83z"/>
  <path id="4" class="fil6" d="M11644 1864l541 -67c19,11 40,19 62,19 100,0 160,-43 160,-138 0,-70 -60,-141 -149,-141 -35,0 -71,19 -98,38l-516 65 0 -452 649 -59c30,13 57,21 92,21 95,0 157,-65 157,-159 0,-65 -52,-125 -154,-125 -33,0 -73,22 -101,41l-643 57c0,-57 -49,-100 -138,-100 -84,0 -152,40 -152,97 0,16 3,32 14,43 -25,19 -41,54 -41,106 0,43 16,84 57,105l0 433c-22,22 -49,73 -49,125 0,51 16,94 49,124l0 509c-19,29 -35,75 -35,119 0,92 67,138 143,138 79,0 133,-22 154,-46l763 -58c144,3 219,-18 219,-134 0,-57 -59,-128 -151,-128 -35,-3 -65,13 -87,37l-746 52 0 -522z"/>
  <path id="5" class="fil6" d="M12870 2500c0,71 43,127 143,127 100,0 149,-54 149,-124 0,-46 -14,-76 -33,-95 0,-305 0,-619 -8,-920l8 0c182,333 441,780 441,980 0,84 38,146 155,146 78,0 132,-27 135,-95 8,-195 362,-741 525,-1020l5 0c-8,314 -8,631 -8,936 -19,19 -30,49 -30,84 0,68 41,108 144,108 81,0 159,-43 159,-127 0,-27 -5,-57 -24,-75l0 -1348c8,-19 19,-51 19,-81 0,-81 -60,-132 -181,-132 -82,0 -136,35 -136,89 0,32 8,84 8,116 -24,260 -489,714 -603,1112l-8 0c-95,-403 -555,-958 -565,-1201 0,-62 -44,-103 -128,-106 -92,3 -148,38 -146,136l0 1406c-16,17 -21,55 -21,84z"/>
  <path id="6" class="fil6" d="M15291 1123c27,-30 44,-73 44,-108 0,-70 -44,-146 -146,-146 -103,0 -190,62 -190,160 0,27 6,59 33,78l0 1282c-22,27 -38,63 -38,98 0,86 65,140 165,140 100,0 170,-67 170,-132 0,-38 -19,-68 -38,-95l0 -1277z"/>
 </g>
</svg>
